<svg width="532" height="532" viewBox="0 0 532 532" fill="none" xmlns="http://www.w3.org/2000/svg">
<g clip-path="url(#clip0_76_2965)">
<rect width="532" height="532" fill="white"/>
<path d="M80.4375 123.906H89.7812C89.5938 126.969 88.75 129.688 87.25 132.062C85.7708 134.438 83.6979 136.292 81.0312 137.625C78.3854 138.958 75.1979 139.625 71.4688 139.625C68.5521 139.625 65.9375 139.125 63.625 138.125C61.3125 137.104 59.3333 135.646 57.6875 133.75C56.0625 131.854 54.8229 129.562 53.9688 126.875C53.1146 124.188 52.6875 121.177 52.6875 117.844V114.688C52.6875 111.354 53.125 108.344 54 105.656C54.8958 102.948 56.1667 100.646 57.8125 98.75C59.4792 96.8542 61.4688 95.3958 63.7812 94.375C66.0938 93.3542 68.6771 92.8438 71.5312 92.8438C75.3229 92.8438 78.5208 93.5312 81.125 94.9062C83.75 96.2812 85.7812 98.1771 87.2188 100.594C88.6771 103.01 89.5521 105.76 89.8438 108.844H80.4688C80.3646 107.01 80 105.458 79.375 104.188C78.75 102.896 77.8021 101.927 76.5312 101.281C75.2812 100.615 73.6146 100.281 71.5312 100.281C69.9688 100.281 68.6042 100.573 67.4375 101.156C66.2708 101.74 65.2917 102.625 64.5 103.812C63.7083 105 63.1146 106.5 62.7188 108.312C62.3438 110.104 62.1562 112.208 62.1562 114.625V117.844C62.1562 120.198 62.3333 122.271 62.6875 124.062C63.0417 125.833 63.5833 127.333 64.3125 128.562C65.0625 129.771 66.0208 130.688 67.1875 131.312C68.375 131.917 69.8021 132.219 71.4688 132.219C73.4271 132.219 75.0417 131.906 76.3125 131.281C77.5833 130.656 78.5521 129.729 79.2188 128.5C79.9062 127.271 80.3125 125.74 80.4375 123.906ZM93.2975 122.438V121.781C93.2975 119.302 93.6517 117.021 94.36 114.938C95.0683 112.833 96.0996 111.01 97.4538 109.469C98.8079 107.927 100.475 106.729 102.454 105.875C104.433 105 106.704 104.562 109.266 104.562C111.829 104.562 114.11 105 116.11 105.875C118.11 106.729 119.787 107.927 121.141 109.469C122.516 111.01 123.558 112.833 124.266 114.938C124.975 117.021 125.329 119.302 125.329 121.781V122.438C125.329 124.896 124.975 127.177 124.266 129.281C123.558 131.365 122.516 133.188 121.141 134.75C119.787 136.292 118.12 137.49 116.141 138.344C114.162 139.198 111.891 139.625 109.329 139.625C106.766 139.625 104.485 139.198 102.485 138.344C100.506 137.49 98.8288 136.292 97.4538 134.75C96.0996 133.188 95.0683 131.365 94.36 129.281C93.6517 127.177 93.2975 124.896 93.2975 122.438ZM102.298 121.781V122.438C102.298 123.854 102.423 125.177 102.673 126.406C102.923 127.635 103.318 128.719 103.86 129.656C104.423 130.573 105.152 131.292 106.048 131.812C106.943 132.333 108.037 132.594 109.329 132.594C110.579 132.594 111.652 132.333 112.548 131.812C113.443 131.292 114.162 130.573 114.704 129.656C115.245 128.719 115.641 127.635 115.891 126.406C116.162 125.177 116.298 123.854 116.298 122.438V121.781C116.298 120.406 116.162 119.115 115.891 117.906C115.641 116.677 115.235 115.594 114.673 114.656C114.131 113.698 113.412 112.948 112.516 112.406C111.62 111.865 110.537 111.594 109.266 111.594C107.995 111.594 106.912 111.865 106.016 112.406C105.141 112.948 104.423 113.698 103.86 114.656C103.318 115.594 102.923 116.677 102.673 117.906C102.423 119.115 102.298 120.406 102.298 121.781ZM150.22 130.906V105.188H159.22V139H150.751L150.22 130.906ZM151.22 123.969L153.876 123.906C153.876 126.156 153.616 128.25 153.095 130.188C152.574 132.104 151.793 133.771 150.751 135.188C149.71 136.583 148.397 137.677 146.814 138.469C145.23 139.24 143.366 139.625 141.22 139.625C139.574 139.625 138.053 139.396 136.658 138.938C135.283 138.458 134.095 137.719 133.095 136.719C132.116 135.698 131.345 134.396 130.783 132.812C130.241 131.208 129.97 129.281 129.97 127.031V105.188H138.97V127.094C138.97 128.094 139.085 128.938 139.314 129.625C139.564 130.312 139.908 130.875 140.345 131.312C140.783 131.75 141.293 132.062 141.876 132.25C142.48 132.438 143.147 132.531 143.876 132.531C145.73 132.531 147.189 132.156 148.251 131.406C149.335 130.656 150.095 129.635 150.533 128.344C150.991 127.031 151.22 125.573 151.22 123.969ZM174.955 91V139H165.924V91H174.955ZM201.721 131.625V91H210.784V139H202.628L201.721 131.625ZM180.346 122.5V121.844C180.346 119.26 180.638 116.917 181.221 114.812C181.805 112.688 182.659 110.865 183.784 109.344C184.909 107.823 186.294 106.646 187.94 105.812C189.586 104.979 191.461 104.562 193.565 104.562C195.544 104.562 197.273 104.979 198.753 105.812C200.253 106.646 201.523 107.833 202.565 109.375C203.628 110.896 204.482 112.698 205.128 114.781C205.773 116.844 206.242 119.104 206.534 121.562V123C206.242 125.354 205.773 127.542 205.128 129.562C204.482 131.583 203.628 133.354 202.565 134.875C201.523 136.375 200.253 137.542 198.753 138.375C197.253 139.208 195.503 139.625 193.503 139.625C191.398 139.625 189.523 139.198 187.878 138.344C186.253 137.49 184.878 136.292 183.753 134.75C182.648 133.208 181.805 131.396 181.221 129.312C180.638 127.229 180.346 124.958 180.346 122.5ZM189.346 121.844V122.5C189.346 123.896 189.45 125.198 189.659 126.406C189.888 127.615 190.253 128.688 190.753 129.625C191.273 130.542 191.94 131.26 192.753 131.781C193.586 132.281 194.596 132.531 195.784 132.531C197.325 132.531 198.596 132.188 199.596 131.5C200.596 130.792 201.357 129.823 201.878 128.594C202.419 127.365 202.732 125.948 202.815 124.344V120.25C202.753 118.938 202.565 117.76 202.253 116.719C201.961 115.656 201.523 114.75 200.94 114C200.378 113.25 199.669 112.667 198.815 112.25C197.982 111.833 196.992 111.625 195.846 111.625C194.68 111.625 193.68 111.896 192.846 112.438C192.013 112.958 191.336 113.677 190.815 114.594C190.315 115.51 189.94 116.594 189.69 117.844C189.461 119.073 189.346 120.406 189.346 121.844ZM225.988 112.406V139H216.988V105.188H225.425L225.988 112.406ZM224.675 120.906H222.238C222.238 118.406 222.56 116.156 223.206 114.156C223.852 112.135 224.758 110.417 225.925 109C227.092 107.562 228.477 106.469 230.081 105.719C231.706 104.948 233.519 104.562 235.519 104.562C237.102 104.562 238.55 104.792 239.863 105.25C241.175 105.708 242.3 106.438 243.238 107.438C244.196 108.438 244.925 109.76 245.425 111.406C245.946 113.052 246.206 115.062 246.206 117.438V139H237.144V117.406C237.144 115.906 236.935 114.74 236.519 113.906C236.102 113.073 235.488 112.49 234.675 112.156C233.883 111.802 232.904 111.625 231.738 111.625C230.529 111.625 229.477 111.865 228.581 112.344C227.706 112.823 226.977 113.49 226.394 114.344C225.831 115.177 225.404 116.156 225.113 117.281C224.821 118.406 224.675 119.615 224.675 120.906ZM254.723 91V95.5312L253.816 108H248.129L248.16 96V91H254.723ZM275.895 105.188V111.562H256.208V105.188H275.895ZM261.083 96.8438H270.083V128.812C270.083 129.792 270.208 130.542 270.458 131.062C270.728 131.583 271.124 131.948 271.645 132.156C272.166 132.344 272.822 132.438 273.614 132.438C274.176 132.438 274.676 132.417 275.114 132.375C275.572 132.312 275.958 132.25 276.27 132.188L276.301 138.812C275.53 139.062 274.697 139.26 273.801 139.406C272.905 139.552 271.916 139.625 270.833 139.625C268.853 139.625 267.124 139.302 265.645 138.656C264.187 137.99 263.062 136.927 262.27 135.469C261.478 134.01 261.083 132.094 261.083 129.719V96.8438ZM332.303 115.219V133.25C331.594 134.104 330.5 135.031 329.021 136.031C327.542 137.01 325.636 137.854 323.303 138.562C320.969 139.271 318.146 139.625 314.834 139.625C311.896 139.625 309.219 139.146 306.803 138.188C304.386 137.208 302.303 135.781 300.553 133.906C298.823 132.031 297.49 129.74 296.553 127.031C295.615 124.302 295.146 121.188 295.146 117.688V114.844C295.146 111.344 295.594 108.229 296.49 105.5C297.407 102.771 298.709 100.469 300.396 98.5938C302.084 96.7188 304.094 95.2917 306.428 94.3125C308.761 93.3333 311.355 92.8438 314.209 92.8438C318.167 92.8438 321.417 93.4896 323.959 94.7812C326.5 96.0521 328.438 97.8229 329.771 100.094C331.125 102.344 331.959 104.927 332.271 107.844H323.178C322.948 106.302 322.511 104.958 321.865 103.812C321.219 102.667 320.292 101.771 319.084 101.125C317.896 100.479 316.355 100.156 314.459 100.156C312.896 100.156 311.5 100.479 310.271 101.125C309.063 101.75 308.042 102.677 307.209 103.906C306.375 105.135 305.74 106.656 305.303 108.469C304.865 110.281 304.646 112.385 304.646 114.781V117.688C304.646 120.062 304.875 122.167 305.334 124C305.792 125.812 306.469 127.344 307.365 128.594C308.282 129.823 309.407 130.75 310.74 131.375C312.073 132 313.625 132.312 315.396 132.312C316.875 132.312 318.105 132.188 319.084 131.938C320.084 131.688 320.886 131.385 321.49 131.031C322.115 130.656 322.594 130.302 322.928 129.969V121.906H314.365V115.219H332.303ZM354.225 139.625C351.6 139.625 349.246 139.208 347.163 138.375C345.079 137.521 343.308 136.344 341.85 134.844C340.413 133.344 339.308 131.604 338.538 129.625C337.767 127.625 337.381 125.5 337.381 123.25V122C337.381 119.438 337.746 117.094 338.475 114.969C339.204 112.844 340.246 111 341.6 109.438C342.975 107.875 344.642 106.677 346.6 105.844C348.558 104.99 350.767 104.562 353.225 104.562C355.621 104.562 357.746 104.958 359.6 105.75C361.454 106.542 363.006 107.667 364.256 109.125C365.527 110.583 366.485 112.333 367.131 114.375C367.777 116.396 368.1 118.646 368.1 121.125V124.875H341.225V118.875H359.256V118.188C359.256 116.938 359.027 115.823 358.569 114.844C358.131 113.844 357.465 113.052 356.569 112.469C355.673 111.885 354.527 111.594 353.131 111.594C351.944 111.594 350.923 111.854 350.069 112.375C349.215 112.896 348.517 113.625 347.975 114.562C347.454 115.5 347.058 116.604 346.788 117.875C346.538 119.125 346.413 120.5 346.413 122V123.25C346.413 124.604 346.6 125.854 346.975 127C347.371 128.146 347.923 129.135 348.631 129.969C349.36 130.802 350.235 131.448 351.256 131.906C352.298 132.365 353.475 132.594 354.788 132.594C356.413 132.594 357.923 132.281 359.319 131.656C360.735 131.01 361.954 130.042 362.975 128.75L367.35 133.5C366.642 134.521 365.673 135.5 364.444 136.438C363.235 137.375 361.777 138.146 360.069 138.75C358.36 139.333 356.413 139.625 354.225 139.625ZM389.147 105.188V111.562H369.46V105.188H389.147ZM374.335 96.8438H383.335V128.812C383.335 129.792 383.46 130.542 383.71 131.062C383.981 131.583 384.377 131.948 384.897 132.156C385.418 132.344 386.075 132.438 386.866 132.438C387.429 132.438 387.929 132.417 388.366 132.375C388.825 132.312 389.21 132.25 389.522 132.188L389.554 138.812C388.783 139.062 387.95 139.26 387.054 139.406C386.158 139.552 385.168 139.625 384.085 139.625C382.106 139.625 380.377 139.302 378.897 138.656C377.439 137.99 376.314 136.927 375.522 135.469C374.731 134.01 374.335 132.094 374.335 129.719V96.8438ZM64.0312 168.5V214H54.6875V168.5H64.0312ZM80.61 187.188V214H71.5788V180.188H80.0475L80.61 187.188ZM79.36 195.906H76.86C76.86 193.552 77.1413 191.385 77.7038 189.406C78.2871 187.406 79.1308 185.677 80.235 184.219C81.36 182.74 82.7454 181.594 84.3913 180.781C86.0371 179.969 87.9433 179.562 90.11 179.562C91.61 179.562 92.985 179.792 94.235 180.25C95.485 180.688 96.5579 181.385 97.4538 182.344C98.3704 183.281 99.0788 184.51 99.5788 186.031C100.079 187.531 100.329 189.333 100.329 191.438V214H91.3288V192.438C91.3288 190.896 91.1204 189.708 90.7038 188.875C90.2871 188.042 89.6933 187.458 88.9225 187.125C88.1725 186.792 87.2663 186.625 86.2038 186.625C85.0371 186.625 84.0163 186.865 83.1413 187.344C82.2871 187.823 81.5788 188.49 81.0163 189.344C80.4538 190.177 80.0371 191.156 79.7663 192.281C79.4954 193.406 79.36 194.615 79.36 195.906ZM99.485 194.875L96.2663 195.281C96.2663 193.073 96.5371 191.021 97.0788 189.125C97.6413 187.229 98.4642 185.562 99.5475 184.125C100.652 182.688 102.016 181.573 103.641 180.781C105.266 179.969 107.141 179.562 109.266 179.562C110.891 179.562 112.37 179.802 113.704 180.281C115.037 180.74 116.173 181.479 117.11 182.5C118.068 183.5 118.798 184.812 119.298 186.438C119.818 188.062 120.079 190.052 120.079 192.406V214H111.048V192.406C111.048 190.844 110.839 189.656 110.423 188.844C110.027 188.01 109.443 187.438 108.673 187.125C107.923 186.792 107.027 186.625 105.985 186.625C104.902 186.625 103.954 186.844 103.141 187.281C102.329 187.698 101.652 188.281 101.11 189.031C100.568 189.781 100.162 190.656 99.8913 191.656C99.6204 192.635 99.485 193.708 99.485 194.875ZM144.658 206.375V191.312C144.658 190.229 144.48 189.302 144.126 188.531C143.772 187.74 143.22 187.125 142.47 186.688C141.741 186.25 140.793 186.031 139.626 186.031C138.626 186.031 137.762 186.208 137.033 186.562C136.303 186.896 135.741 187.385 135.345 188.031C134.949 188.656 134.751 189.396 134.751 190.25H125.751C125.751 188.812 126.085 187.448 126.751 186.156C127.418 184.865 128.387 183.729 129.658 182.75C130.928 181.75 132.439 180.969 134.189 180.406C135.96 179.844 137.939 179.562 140.126 179.562C142.751 179.562 145.085 180 147.126 180.875C149.168 181.75 150.772 183.062 151.939 184.812C153.126 186.562 153.72 188.75 153.72 191.375V205.844C153.72 207.698 153.835 209.219 154.064 210.406C154.293 211.573 154.626 212.594 155.064 213.469V214H145.97C145.533 213.083 145.199 211.938 144.97 210.562C144.762 209.167 144.658 207.771 144.658 206.375ZM145.845 193.406L145.908 198.5H140.876C139.689 198.5 138.658 198.635 137.783 198.906C136.908 199.177 136.189 199.562 135.626 200.062C135.064 200.542 134.647 201.104 134.376 201.75C134.126 202.396 134.001 203.104 134.001 203.875C134.001 204.646 134.178 205.344 134.533 205.969C134.887 206.573 135.397 207.052 136.064 207.406C136.73 207.74 137.512 207.906 138.408 207.906C139.762 207.906 140.939 207.635 141.939 207.094C142.939 206.552 143.71 205.885 144.251 205.094C144.814 204.302 145.105 203.552 145.126 202.844L147.501 206.656C147.168 207.51 146.71 208.396 146.126 209.312C145.564 210.229 144.845 211.094 143.97 211.906C143.095 212.698 142.043 213.354 140.814 213.875C139.585 214.375 138.126 214.625 136.439 214.625C134.293 214.625 132.345 214.198 130.595 213.344C128.866 212.469 127.491 211.271 126.47 209.75C125.47 208.208 124.97 206.458 124.97 204.5C124.97 202.729 125.303 201.156 125.97 199.781C126.637 198.406 127.616 197.25 128.908 196.312C130.22 195.354 131.855 194.635 133.814 194.156C135.772 193.656 138.043 193.406 140.626 193.406H145.845ZM181.424 180.188H189.58V212.875C189.58 215.958 188.893 218.573 187.518 220.719C186.163 222.885 184.268 224.521 181.83 225.625C179.393 226.75 176.559 227.312 173.33 227.312C171.913 227.312 170.413 227.125 168.83 226.75C167.268 226.375 165.768 225.792 164.33 225C162.913 224.208 161.726 223.208 160.768 222L164.736 216.688C165.778 217.896 166.986 218.833 168.361 219.5C169.736 220.188 171.257 220.531 172.924 220.531C174.549 220.531 175.924 220.229 177.049 219.625C178.174 219.042 179.038 218.177 179.643 217.031C180.247 215.906 180.549 214.542 180.549 212.938V188L181.424 180.188ZM158.674 197.5V196.844C158.674 194.26 158.986 191.917 159.611 189.812C160.257 187.688 161.163 185.865 162.33 184.344C163.518 182.823 164.955 181.646 166.643 180.812C168.33 179.979 170.236 179.562 172.361 179.562C174.611 179.562 176.497 179.979 178.018 180.812C179.538 181.646 180.788 182.833 181.768 184.375C182.747 185.896 183.507 187.698 184.049 189.781C184.611 191.844 185.049 194.104 185.361 196.562V198C185.049 200.354 184.58 202.542 183.955 204.562C183.33 206.583 182.507 208.354 181.486 209.875C180.465 211.375 179.195 212.542 177.674 213.375C176.174 214.208 174.382 214.625 172.299 214.625C170.215 214.625 168.33 214.198 166.643 213.344C164.976 212.49 163.549 211.292 162.361 209.75C161.174 208.208 160.257 206.396 159.611 204.312C158.986 202.229 158.674 199.958 158.674 197.5ZM167.674 196.844V197.5C167.674 198.896 167.809 200.198 168.08 201.406C168.351 202.615 168.768 203.688 169.33 204.625C169.913 205.542 170.632 206.26 171.486 206.781C172.361 207.281 173.393 207.531 174.58 207.531C176.226 207.531 177.57 207.188 178.611 206.5C179.653 205.792 180.434 204.823 180.955 203.594C181.476 202.365 181.778 200.948 181.861 199.344V195.25C181.82 193.938 181.643 192.76 181.33 191.719C181.018 190.656 180.58 189.75 180.018 189C179.455 188.25 178.726 187.667 177.83 187.25C176.934 186.833 175.872 186.625 174.643 186.625C173.455 186.625 172.424 186.896 171.549 187.438C170.695 187.958 169.976 188.677 169.393 189.594C168.83 190.51 168.403 191.594 168.111 192.844C167.82 194.073 167.674 195.406 167.674 196.844ZM211.503 214.625C208.878 214.625 206.523 214.208 204.44 213.375C202.357 212.521 200.586 211.344 199.128 209.844C197.69 208.344 196.586 206.604 195.815 204.625C195.044 202.625 194.659 200.5 194.659 198.25V197C194.659 194.438 195.023 192.094 195.753 189.969C196.482 187.844 197.523 186 198.878 184.438C200.253 182.875 201.919 181.677 203.878 180.844C205.836 179.99 208.044 179.562 210.503 179.562C212.898 179.562 215.023 179.958 216.878 180.75C218.732 181.542 220.284 182.667 221.534 184.125C222.805 185.583 223.763 187.333 224.409 189.375C225.055 191.396 225.378 193.646 225.378 196.125V199.875H198.503V193.875H216.534V193.188C216.534 191.938 216.305 190.823 215.846 189.844C215.409 188.844 214.742 188.052 213.846 187.469C212.95 186.885 211.805 186.594 210.409 186.594C209.221 186.594 208.2 186.854 207.346 187.375C206.492 187.896 205.794 188.625 205.253 189.562C204.732 190.5 204.336 191.604 204.065 192.875C203.815 194.125 203.69 195.5 203.69 197V198.25C203.69 199.604 203.878 200.854 204.253 202C204.648 203.146 205.2 204.135 205.909 204.969C206.638 205.802 207.513 206.448 208.534 206.906C209.575 207.365 210.753 207.594 212.065 207.594C213.69 207.594 215.2 207.281 216.596 206.656C218.013 206.01 219.232 205.042 220.253 203.75L224.628 208.5C223.919 209.521 222.95 210.5 221.721 211.438C220.513 212.375 219.055 213.146 217.346 213.75C215.638 214.333 213.69 214.625 211.503 214.625ZM230.3 209.656C230.3 208.323 230.758 207.208 231.675 206.312C232.613 205.417 233.852 204.969 235.394 204.969C236.935 204.969 238.165 205.417 239.081 206.312C240.019 207.208 240.488 208.323 240.488 209.656C240.488 210.99 240.019 212.104 239.081 213C238.165 213.896 236.935 214.344 235.394 214.344C233.852 214.344 232.613 213.896 231.675 213C230.758 212.104 230.3 210.99 230.3 209.656Z" fill="#333333"/>
<path d="M58.2148 514.637H53.7734V512.305H58.2148C58.9883 512.305 59.6133 512.18 60.0898 511.93C60.5664 511.68 60.9141 511.336 61.1328 510.898C61.3594 510.453 61.4727 509.945 61.4727 509.375C61.4727 508.836 61.3594 508.332 61.1328 507.863C60.9141 507.387 60.5664 507.004 60.0898 506.715C59.6133 506.426 58.9883 506.281 58.2148 506.281H54.6758V521H51.7344V503.938H58.2148C59.5352 503.938 60.6562 504.172 61.5781 504.641C62.5078 505.102 63.2148 505.742 63.6992 506.562C64.1836 507.375 64.4258 508.305 64.4258 509.352C64.4258 510.453 64.1836 511.398 63.6992 512.188C63.2148 512.977 62.5078 513.582 61.5781 514.004C60.6562 514.426 59.5352 514.637 58.2148 514.637ZM69.5647 503V521H66.7288V503H69.5647ZM78.0083 521.234C77.0708 521.234 76.2231 521.082 75.4653 520.777C74.7153 520.465 74.0747 520.031 73.5434 519.477C73.02 518.922 72.6177 518.27 72.3364 517.52C72.0552 516.77 71.9145 515.961 71.9145 515.094V514.625C71.9145 513.633 72.0591 512.734 72.3481 511.93C72.6372 511.125 73.0395 510.438 73.5552 509.867C74.0708 509.289 74.6802 508.848 75.3833 508.543C76.0864 508.238 76.8481 508.086 77.6684 508.086C78.5747 508.086 79.3677 508.238 80.0473 508.543C80.727 508.848 81.2895 509.277 81.7348 509.832C82.188 510.379 82.5239 511.031 82.7427 511.789C82.9692 512.547 83.0825 513.383 83.0825 514.297V515.504H73.2856V513.477H80.2934V513.254C80.2778 512.746 80.1763 512.27 79.9888 511.824C79.8091 511.379 79.5317 511.02 79.1567 510.746C78.7817 510.473 78.2817 510.336 77.6567 510.336C77.188 510.336 76.77 510.438 76.4028 510.641C76.0434 510.836 75.7427 511.121 75.5005 511.496C75.2583 511.871 75.0708 512.324 74.938 512.855C74.813 513.379 74.7505 513.969 74.7505 514.625V515.094C74.7505 515.648 74.8247 516.164 74.9731 516.641C75.1294 517.109 75.3559 517.52 75.6528 517.871C75.9497 518.223 76.3091 518.5 76.7309 518.703C77.1528 518.898 77.6333 518.996 78.1723 518.996C78.852 518.996 79.4575 518.859 79.9888 518.586C80.52 518.312 80.9809 517.926 81.3716 517.426L82.8598 518.867C82.5864 519.266 82.2309 519.648 81.7934 520.016C81.3559 520.375 80.8208 520.668 80.188 520.895C79.563 521.121 78.8364 521.234 78.0083 521.234ZM92.1941 518.457V512.41C92.1941 511.957 92.112 511.566 91.948 511.238C91.7839 510.91 91.5339 510.656 91.198 510.477C90.8698 510.297 90.4558 510.207 89.9558 510.207C89.4948 510.207 89.0964 510.285 88.7605 510.441C88.4245 510.598 88.1628 510.809 87.9753 511.074C87.7878 511.34 87.6941 511.641 87.6941 511.977H84.8816C84.8816 511.477 85.0027 510.992 85.2448 510.523C85.487 510.055 85.8386 509.637 86.2995 509.27C86.7605 508.902 87.3112 508.613 87.9519 508.402C88.5925 508.191 89.3112 508.086 90.1081 508.086C91.0612 508.086 91.905 508.246 92.6394 508.566C93.3816 508.887 93.9636 509.371 94.3855 510.02C94.8152 510.66 95.03 511.465 95.03 512.434V518.07C95.03 518.648 95.0691 519.168 95.1472 519.629C95.2331 520.082 95.3542 520.477 95.5105 520.812V521H92.6159C92.4831 520.695 92.3777 520.309 92.2995 519.84C92.2292 519.363 92.1941 518.902 92.1941 518.457ZM92.6042 513.289L92.6277 515.035H90.6003C90.0769 515.035 89.6159 515.086 89.2175 515.188C88.8191 515.281 88.487 515.422 88.2214 515.609C87.9558 515.797 87.7566 516.023 87.6237 516.289C87.4909 516.555 87.4245 516.855 87.4245 517.191C87.4245 517.527 87.5027 517.836 87.6589 518.117C87.8152 518.391 88.0417 518.605 88.3386 518.762C88.6433 518.918 89.0105 518.996 89.4402 518.996C90.0183 518.996 90.5222 518.879 90.9519 518.645C91.3894 518.402 91.7331 518.109 91.9831 517.766C92.2331 517.414 92.3659 517.082 92.3816 516.77L93.2956 518.023C93.2019 518.344 93.0417 518.688 92.8152 519.055C92.5886 519.422 92.2917 519.773 91.9245 520.109C91.5652 520.438 91.1316 520.707 90.6237 520.918C90.1237 521.129 89.5456 521.234 88.8894 521.234C88.0612 521.234 87.323 521.07 86.6745 520.742C86.0261 520.406 85.5183 519.957 85.1511 519.395C84.7839 518.824 84.6003 518.18 84.6003 517.461C84.6003 516.789 84.7253 516.195 84.9753 515.68C85.2331 515.156 85.6081 514.719 86.1003 514.367C86.6003 514.016 87.2097 513.75 87.9284 513.57C88.6472 513.383 89.4675 513.289 90.3894 513.289H92.6042ZM104.856 517.566C104.856 517.285 104.786 517.031 104.645 516.805C104.505 516.57 104.235 516.359 103.837 516.172C103.446 515.984 102.868 515.812 102.103 515.656C101.431 515.508 100.813 515.332 100.251 515.129C99.6963 514.918 99.2197 514.664 98.8213 514.367C98.4228 514.07 98.1142 513.719 97.8955 513.312C97.6767 512.906 97.5673 512.438 97.5673 511.906C97.5673 511.391 97.6806 510.902 97.9072 510.441C98.1338 509.98 98.458 509.574 98.8798 509.223C99.3017 508.871 99.8134 508.594 100.415 508.391C101.024 508.188 101.704 508.086 102.454 508.086C103.517 508.086 104.427 508.266 105.185 508.625C105.95 508.977 106.536 509.457 106.942 510.066C107.349 510.668 107.552 511.348 107.552 512.105H104.728C104.728 511.77 104.642 511.457 104.47 511.168C104.306 510.871 104.056 510.633 103.72 510.453C103.384 510.266 102.962 510.172 102.454 510.172C101.97 510.172 101.567 510.25 101.247 510.406C100.935 510.555 100.7 510.75 100.544 510.992C100.395 511.234 100.321 511.5 100.321 511.789C100.321 512 100.36 512.191 100.438 512.363C100.524 512.527 100.665 512.68 100.86 512.82C101.056 512.953 101.321 513.078 101.657 513.195C102.001 513.312 102.431 513.426 102.946 513.535C103.915 513.738 104.747 514 105.442 514.32C106.145 514.633 106.685 515.039 107.06 515.539C107.435 516.031 107.622 516.656 107.622 517.414C107.622 517.977 107.501 518.492 107.259 518.961C107.024 519.422 106.681 519.824 106.228 520.168C105.774 520.504 105.231 520.766 104.599 520.953C103.974 521.141 103.27 521.234 102.489 521.234C101.341 521.234 100.368 521.031 99.5713 520.625C98.7744 520.211 98.1689 519.684 97.7548 519.043C97.3486 518.395 97.1455 517.723 97.1455 517.027H99.8759C99.9072 517.551 100.052 517.969 100.31 518.281C100.575 518.586 100.903 518.809 101.294 518.949C101.692 519.082 102.103 519.148 102.524 519.148C103.032 519.148 103.458 519.082 103.802 518.949C104.145 518.809 104.407 518.621 104.587 518.387C104.767 518.145 104.856 517.871 104.856 517.566ZM115.445 521.234C114.507 521.234 113.659 521.082 112.902 520.777C112.152 520.465 111.511 520.031 110.98 519.477C110.456 518.922 110.054 518.27 109.773 517.52C109.491 516.77 109.351 515.961 109.351 515.094V514.625C109.351 513.633 109.495 512.734 109.784 511.93C110.073 511.125 110.476 510.438 110.991 509.867C111.507 509.289 112.116 508.848 112.82 508.543C113.523 508.238 114.284 508.086 115.105 508.086C116.011 508.086 116.804 508.238 117.484 508.543C118.163 508.848 118.726 509.277 119.171 509.832C119.624 510.379 119.96 511.031 120.179 511.789C120.405 512.547 120.519 513.383 120.519 514.297V515.504H110.722V513.477H117.73V513.254C117.714 512.746 117.612 512.27 117.425 511.824C117.245 511.379 116.968 511.02 116.593 510.746C116.218 510.473 115.718 510.336 115.093 510.336C114.624 510.336 114.206 510.438 113.839 510.641C113.48 510.836 113.179 511.121 112.937 511.496C112.695 511.871 112.507 512.324 112.374 512.855C112.249 513.379 112.187 513.969 112.187 514.625V515.094C112.187 515.648 112.261 516.164 112.409 516.641C112.566 517.109 112.792 517.52 113.089 517.871C113.386 518.223 113.745 518.5 114.167 518.703C114.589 518.898 115.07 518.996 115.609 518.996C116.288 518.996 116.894 518.859 117.425 518.586C117.956 518.312 118.417 517.926 118.808 517.426L120.296 518.867C120.023 519.266 119.667 519.648 119.23 520.016C118.792 520.375 118.257 520.668 117.624 520.895C116.999 521.121 116.273 521.234 115.445 521.234ZM128.23 503H131.054V518.293L130.785 521H128.23V503ZM139.328 514.543V514.789C139.328 515.727 139.222 516.59 139.011 517.379C138.808 518.16 138.496 518.84 138.074 519.418C137.66 519.996 137.144 520.445 136.527 520.766C135.918 521.078 135.211 521.234 134.406 521.234C133.617 521.234 132.929 521.086 132.343 520.789C131.757 520.492 131.265 520.07 130.867 519.523C130.476 518.977 130.16 518.324 129.918 517.566C129.675 516.809 129.504 515.973 129.402 515.059V514.273C129.504 513.352 129.675 512.516 129.918 511.766C130.16 511.008 130.476 510.355 130.867 509.809C131.265 509.254 131.754 508.828 132.332 508.531C132.918 508.234 133.601 508.086 134.382 508.086C135.195 508.086 135.91 508.242 136.527 508.555C137.152 508.867 137.672 509.312 138.086 509.891C138.5 510.461 138.808 511.141 139.011 511.93C139.222 512.719 139.328 513.59 139.328 514.543ZM136.504 514.789V514.543C136.504 513.973 136.457 513.438 136.363 512.938C136.269 512.43 136.113 511.984 135.894 511.602C135.683 511.219 135.394 510.918 135.027 510.699C134.668 510.473 134.218 510.359 133.679 510.359C133.179 510.359 132.75 510.445 132.39 510.617C132.031 510.789 131.73 511.023 131.488 511.32C131.246 511.617 131.054 511.961 130.914 512.352C130.781 512.742 130.691 513.164 130.644 513.617V515.738C130.715 516.324 130.863 516.863 131.09 517.355C131.324 517.84 131.652 518.23 132.074 518.527C132.496 518.816 133.039 518.961 133.703 518.961C134.226 518.961 134.668 518.855 135.027 518.645C135.386 518.434 135.672 518.141 135.882 517.766C136.101 517.383 136.257 516.938 136.351 516.43C136.453 515.922 136.504 515.375 136.504 514.789ZM147.068 521.234C146.131 521.234 145.283 521.082 144.525 520.777C143.775 520.465 143.135 520.031 142.603 519.477C142.08 518.922 141.678 518.27 141.396 517.52C141.115 516.77 140.975 515.961 140.975 515.094V514.625C140.975 513.633 141.119 512.734 141.408 511.93C141.697 511.125 142.1 510.438 142.615 509.867C143.131 509.289 143.74 508.848 144.443 508.543C145.146 508.238 145.908 508.086 146.728 508.086C147.635 508.086 148.428 508.238 149.107 508.543C149.787 508.848 150.35 509.277 150.795 509.832C151.248 510.379 151.584 511.031 151.803 511.789C152.029 512.547 152.143 513.383 152.143 514.297V515.504H142.346V513.477H149.353V513.254C149.338 512.746 149.236 512.27 149.049 511.824C148.869 511.379 148.592 511.02 148.217 510.746C147.842 510.473 147.342 510.336 146.717 510.336C146.248 510.336 145.83 510.438 145.463 510.641C145.103 510.836 144.803 511.121 144.56 511.496C144.318 511.871 144.131 512.324 143.998 512.855C143.873 513.379 143.81 513.969 143.81 514.625V515.094C143.81 515.648 143.885 516.164 144.033 516.641C144.189 517.109 144.416 517.52 144.713 517.871C145.01 518.223 145.369 518.5 145.791 518.703C146.213 518.898 146.693 518.996 147.232 518.996C147.912 518.996 148.518 518.859 149.049 518.586C149.58 518.312 150.041 517.926 150.432 517.426L151.92 518.867C151.646 519.266 151.291 519.648 150.853 520.016C150.416 520.375 149.881 520.668 149.248 520.895C148.623 521.121 147.896 521.234 147.068 521.234ZM162.678 510.758V525.875H159.854V508.32H162.455L162.678 510.758ZM170.94 514.543V514.789C170.94 515.711 170.83 516.566 170.612 517.355C170.401 518.137 170.084 518.82 169.662 519.406C169.248 519.984 168.737 520.434 168.127 520.754C167.518 521.074 166.815 521.234 166.018 521.234C165.229 521.234 164.537 521.09 163.944 520.801C163.358 520.504 162.862 520.086 162.455 519.547C162.049 519.008 161.721 518.375 161.471 517.648C161.229 516.914 161.057 516.109 160.955 515.234V514.285C161.057 513.355 161.229 512.512 161.471 511.754C161.721 510.996 162.049 510.344 162.455 509.797C162.862 509.25 163.358 508.828 163.944 508.531C164.53 508.234 165.213 508.086 165.995 508.086C166.791 508.086 167.498 508.242 168.116 508.555C168.733 508.859 169.252 509.297 169.674 509.867C170.096 510.43 170.412 511.109 170.623 511.906C170.834 512.695 170.94 513.574 170.94 514.543ZM168.116 514.789V514.543C168.116 513.957 168.061 513.414 167.952 512.914C167.842 512.406 167.67 511.961 167.436 511.578C167.202 511.195 166.901 510.898 166.534 510.688C166.174 510.469 165.741 510.359 165.233 510.359C164.733 510.359 164.303 510.445 163.944 510.617C163.584 510.781 163.284 511.012 163.041 511.309C162.799 511.605 162.612 511.953 162.479 512.352C162.346 512.742 162.252 513.168 162.198 513.629V515.902C162.291 516.465 162.452 516.98 162.678 517.449C162.905 517.918 163.225 518.293 163.639 518.574C164.061 518.848 164.6 518.984 165.256 518.984C165.764 518.984 166.198 518.875 166.557 518.656C166.916 518.438 167.209 518.137 167.436 517.754C167.67 517.363 167.842 516.914 167.952 516.406C168.061 515.898 168.116 515.359 168.116 514.789ZM180.251 518.457V512.41C180.251 511.957 180.169 511.566 180.005 511.238C179.84 510.91 179.59 510.656 179.255 510.477C178.926 510.297 178.512 510.207 178.012 510.207C177.551 510.207 177.153 510.285 176.817 510.441C176.481 510.598 176.219 510.809 176.032 511.074C175.844 511.34 175.751 511.641 175.751 511.977H172.938C172.938 511.477 173.059 510.992 173.301 510.523C173.544 510.055 173.895 509.637 174.356 509.27C174.817 508.902 175.368 508.613 176.008 508.402C176.649 508.191 177.368 508.086 178.165 508.086C179.118 508.086 179.962 508.246 180.696 508.566C181.438 508.887 182.02 509.371 182.442 510.02C182.872 510.66 183.087 511.465 183.087 512.434V518.07C183.087 518.648 183.126 519.168 183.204 519.629C183.29 520.082 183.411 520.477 183.567 520.812V521H180.673C180.54 520.695 180.434 520.309 180.356 519.84C180.286 519.363 180.251 518.902 180.251 518.457ZM180.661 513.289L180.684 515.035H178.657C178.133 515.035 177.673 515.086 177.274 515.188C176.876 515.281 176.544 515.422 176.278 515.609C176.012 515.797 175.813 516.023 175.68 516.289C175.548 516.555 175.481 516.855 175.481 517.191C175.481 517.527 175.559 517.836 175.715 518.117C175.872 518.391 176.098 518.605 176.395 518.762C176.7 518.918 177.067 518.996 177.497 518.996C178.075 518.996 178.579 518.879 179.008 518.645C179.446 518.402 179.79 518.109 180.04 517.766C180.29 517.414 180.423 517.082 180.438 516.77L181.352 518.023C181.258 518.344 181.098 518.688 180.872 519.055C180.645 519.422 180.348 519.773 179.981 520.109C179.622 520.438 179.188 520.707 178.68 520.918C178.18 521.129 177.602 521.234 176.946 521.234C176.118 521.234 175.38 521.07 174.731 520.742C174.083 520.406 173.575 519.957 173.208 519.395C172.84 518.824 172.657 518.18 172.657 517.461C172.657 516.789 172.782 516.195 173.032 515.68C173.29 515.156 173.665 514.719 174.157 514.367C174.657 514.016 175.266 513.75 175.985 513.57C176.704 513.383 177.524 513.289 178.446 513.289H180.661ZM191.612 508.32V510.383H184.464V508.32H191.612ZM186.526 505.215H189.35V517.496C189.35 517.887 189.405 518.188 189.515 518.398C189.632 518.602 189.792 518.738 189.995 518.809C190.198 518.879 190.436 518.914 190.71 518.914C190.905 518.914 191.093 518.902 191.272 518.879C191.452 518.855 191.597 518.832 191.706 518.809L191.718 520.965C191.483 521.035 191.21 521.098 190.897 521.152C190.593 521.207 190.241 521.234 189.843 521.234C189.194 521.234 188.62 521.121 188.12 520.895C187.62 520.66 187.229 520.281 186.948 519.758C186.667 519.234 186.526 518.539 186.526 517.672V505.215ZM196.575 508.32V521H193.739V508.32H196.575ZM193.552 504.992C193.552 504.562 193.693 504.207 193.974 503.926C194.263 503.637 194.661 503.492 195.169 503.492C195.669 503.492 196.064 503.637 196.353 503.926C196.642 504.207 196.786 504.562 196.786 504.992C196.786 505.414 196.642 505.766 196.353 506.047C196.064 506.328 195.669 506.469 195.169 506.469C194.661 506.469 194.263 506.328 193.974 506.047C193.693 505.766 193.552 505.414 193.552 504.992ZM205.019 521.234C204.081 521.234 203.234 521.082 202.476 520.777C201.726 520.465 201.085 520.031 200.554 519.477C200.031 518.922 199.628 518.27 199.347 517.52C199.066 516.77 198.925 515.961 198.925 515.094V514.625C198.925 513.633 199.07 512.734 199.359 511.93C199.648 511.125 200.05 510.438 200.566 509.867C201.081 509.289 201.691 508.848 202.394 508.543C203.097 508.238 203.859 508.086 204.679 508.086C205.585 508.086 206.378 508.238 207.058 508.543C207.738 508.848 208.3 509.277 208.745 509.832C209.199 510.379 209.535 511.031 209.753 511.789C209.98 512.547 210.093 513.383 210.093 514.297V515.504H200.296V513.477H207.304V513.254C207.288 512.746 207.187 512.27 206.999 511.824C206.82 511.379 206.542 511.02 206.167 510.746C205.792 510.473 205.292 510.336 204.667 510.336C204.199 510.336 203.781 510.438 203.413 510.641C203.054 510.836 202.753 511.121 202.511 511.496C202.269 511.871 202.081 512.324 201.949 512.855C201.824 513.379 201.761 513.969 201.761 514.625V515.094C201.761 515.648 201.835 516.164 201.984 516.641C202.14 517.109 202.367 517.52 202.663 517.871C202.96 518.223 203.32 518.5 203.742 518.703C204.163 518.898 204.644 518.996 205.183 518.996C205.863 518.996 206.468 518.859 206.999 518.586C207.531 518.312 207.992 517.926 208.382 517.426L209.87 518.867C209.597 519.266 209.242 519.648 208.804 520.016C208.367 520.375 207.831 520.668 207.199 520.895C206.574 521.121 205.847 521.234 205.019 521.234ZM214.857 511.027V521H212.033V508.32H214.693L214.857 511.027ZM214.353 514.191L213.439 514.18C213.447 513.281 213.572 512.457 213.814 511.707C214.064 510.957 214.408 510.312 214.845 509.773C215.291 509.234 215.822 508.82 216.439 508.531C217.056 508.234 217.744 508.086 218.502 508.086C219.111 508.086 219.662 508.172 220.154 508.344C220.654 508.508 221.08 508.777 221.431 509.152C221.791 509.527 222.064 510.016 222.252 510.617C222.439 511.211 222.533 511.941 222.533 512.809V521H219.697V512.797C219.697 512.188 219.607 511.707 219.427 511.355C219.255 510.996 219.002 510.742 218.666 510.594C218.337 510.438 217.927 510.359 217.435 510.359C216.951 510.359 216.517 510.461 216.134 510.664C215.752 510.867 215.427 511.145 215.162 511.496C214.904 511.848 214.705 512.254 214.564 512.715C214.423 513.176 214.353 513.668 214.353 514.191ZM230.988 508.32V510.383H223.84V508.32H230.988ZM225.902 505.215H228.726V517.496C228.726 517.887 228.781 518.188 228.89 518.398C229.008 518.602 229.168 518.738 229.371 518.809C229.574 518.879 229.812 518.914 230.086 518.914C230.281 518.914 230.469 518.902 230.648 518.879C230.828 518.855 230.973 518.832 231.082 518.809L231.094 520.965C230.859 521.035 230.586 521.098 230.273 521.152C229.969 521.207 229.617 521.234 229.219 521.234C228.57 521.234 227.996 521.121 227.496 520.895C226.996 520.66 226.605 520.281 226.324 519.758C226.043 519.234 225.902 518.539 225.902 517.672V505.215Z" fill="#828282"/>
</g>
<defs>
<clipPath id="clip0_76_2965">
<rect width="532" height="532" fill="white"/>
</clipPath>
</defs>
</svg>
